<svg xmlns="http://www.w3.org/2000/svg" viewBox="0 0 24 24" width="18" height="18" fill="white">
  <path d="M12 2C6.48 2 2 6.48 2 12s4.48 10 10 10 10-4.48 10-10S17.52 2 12 2zm6.93 9h-2.95a15.4 15.4 0 0 0-1.2-5.06A8.03 8.03 0 0 1 18.93 11zM12 4.07c.95 1.3 1.74 3.44 1.97 6.93h-3.94c.23-3.49 1.02-5.63 1.97-6.93zM4.07 13h2.95a15.4 15.4 0 0 0 1.2 5.06A8.03 8.03 0 0 1 4.07 13zM4.07 11a8.03 8.03 0 0 1 4.15-5.06A15.4 15.4 0 0 0 7.02 11H4.07zM12 19.93c-.95-1.3-1.74-3.44-1.97-6.93h3.94c-.23 3.49-1.02 5.63-1.97 6.93zM15.78 18.06c.58-1.4.99-3.08 1.2-5.06h2.95a8.03 8.03 0 0 1-4.15 5.06z"></path>
</svg>
